<?xml version="1.0" encoding="UTF-8" standalone="no"?>
<!-- Created with Inkscape (http://www.inkscape.org/) -->

<svg
   width="64.0px"
   height="64.0px"
   viewBox="0 0 64.0 64.0"
   version="1.1"
   id="SVGRoot"
   sodipodi:docname="favicon.svg"
   inkscape:version="1.2.1 (9c6d41e4, 2022-07-14)"
   xmlns:inkscape="http://www.inkscape.org/namespaces/inkscape"
   xmlns:sodipodi="http://sodipodi.sourceforge.net/DTD/sodipodi-0.dtd"
   xmlns="http://www.w3.org/2000/svg"
   xmlns:svg="http://www.w3.org/2000/svg">
  <sodipodi:namedview
     id="namedview261"
     pagecolor="#ffffff"
     bordercolor="#666666"
     borderopacity="1.0"
     inkscape:showpageshadow="2"
     inkscape:pageopacity="0.0"
     inkscape:pagecheckerboard="0"
     inkscape:deskcolor="#d1d1d1"
     inkscape:document-units="px"
     showgrid="false"
     inkscape:zoom="3.5794005"
     inkscape:cx="36.179243"
     inkscape:cy="26.959822"
     inkscape:window-width="830"
     inkscape:window-height="685"
     inkscape:window-x="0"
     inkscape:window-y="159"
     inkscape:window-maximized="0"
     inkscape:current-layer="layer1">
    <inkscape:grid
       type="xygrid"
       id="grid384" />
  </sodipodi:namedview>
  <defs
     id="defs256" />
  <g
     inkscape:label="Layer 1"
     inkscape:groupmode="layer"
     id="layer1">
    <path
       id="path2609"
       style="fill:#1d2443;fill-opacity:1;stroke-width:0;stroke-linecap:square;stroke-miterlimit:3;stroke-opacity:0.864469"
       d="M 44.8,22.4 C 44.8,34.771178 34.771178,44.8 22.4,44.8 10.028822,44.8 0,34.771178 0,22.4 0,15.910758 0,0 0,0 0,0 16.518063,0 22.4,0 34.771178,0 44.8,10.028822 44.8,22.4 Z"
       sodipodi:nodetypes="sscccs" />
    <path
       id="circle3447"
       style="fill:#4f3362;fill-opacity:1;stroke-width:0;stroke-linecap:square;stroke-miterlimit:3;stroke-opacity:0.864469"
       d="M 64,41.6 C 64,53.971178 53.971178,64 41.6,64 29.228822,64 19.2,53.971178 19.2,41.6 c 0,-12.371178 10.028822,-22.4 22.4,-22.4 6.743692,0 22.4,0 22.4,0 0,0 -3e-6,16.772511 -3e-6,22.399997 z"
       sodipodi:nodetypes="csscccc" />
    <path
       d="m 16.11136,13.42336 c 0,-0.928 0.576,-1.408 2.88,-1.408 2.208,0 4.544,0.608 4.544,4.416 0,3.68 -1.792,4.864 -4.896,4.864 -0.8,0 -2.112,-0.096 -2.528,-0.32 z m -2.752,3.84 v 7.84 c 0,2.4 -0.064,4.672 -0.32,6.4 l 0.064,0.096 c 0.384,-0.064 1.248,-0.096 1.632,-0.096 0.384,0 1.248,0.032 1.632,0.096 l 0.064,-0.096 c -0.256,-1.824 -0.32,-4 -0.32,-6.4 v -2.752 c 0.704,0.224 1.568,0.32 2.688,0.32 5.824,0 7.84,-3.68 7.84,-6.4 0,-2.368 -1.504,-5.632 -7.424,-5.632 -0.832,0 -3.52,0.224 -4.48,0.224 -0.384,0 -1.248,-0.032 -1.632,-0.096 l -0.064,0.096 c 0.256,1.824 0.32,4 0.32,6.4 z"
       style="font-weight:normal;font-size:25px;font-family:'Libertinus Sans';-inkscape-font-specification:'Libertinus Sans';fill:#eeeeee;stroke-width:0;stroke-linecap:square;stroke-miterlimit:3;stroke-opacity:0.864469"
       id="path5323" />
    <path
       d="m 42.347366,37.829274 c 0,-0.928 0.576,-1.408 2.88,-1.408 2.208,0 4.544,0.608 4.544,4.416 0,3.68 -1.792,4.864 -4.896,4.864 -0.8,0 -2.112,-0.096 -2.528,-0.32 z m -2.752,3.84 v 7.84 c 0,2.4 -0.064,4.672 -0.32,6.4 l 0.064,0.096 c 0.384,-0.064 1.248,-0.096 1.632,-0.096 0.384,0 1.248,0.032 1.632,0.096 l 0.064,-0.096 c -0.256,-1.824 -0.32,-4 -0.32,-6.4 v -2.752 c 0.704,0.224 1.568,0.32 2.688,0.32 5.824,0 7.84,-3.68 7.84,-6.4 0,-2.368 -1.504,-5.632 -7.424,-5.632 -0.832,0 -3.52,0.224 -4.48,0.224 -0.384,0 -1.248,-0.032 -1.632,-0.096 l -0.064,0.096 c 0.256,1.824 0.32,4 0.32,6.4 z"
       style="font-weight:normal;font-size:25px;font-family:'Libertinus Sans';-inkscape-font-specification:'Libertinus Sans';fill:#eeeeee;stroke-width:0;stroke-linecap:square;stroke-miterlimit:3;stroke-opacity:0.864469"
       id="path5320" />
    <path
       d="m 29.607786,27.663796 c 0.880371,0 1.858561,0.97819 1.858561,2.49439 0,1.565103 -0.07337,2.836751 -1.516196,4.304038 l -1.809652,1.7852 c -2.396568,2.445477 -3.130214,3.570396 -3.130214,5.013227 l 0.02446,0.0978 c 2.372112,-0.02446 4.230677,-0.0978 6.089238,-0.0978 1.834108,0 2.421024,0.02445 4.255131,0.0978 -0.07335,-0.317913 -0.146727,-0.831463 -0.146727,-1.149377 0,-0.317908 0.07337,-1.2961 0.146727,-1.614012 -1.418377,0.0978 -2.103111,0.220092 -4.548589,0.220092 h -2.005289 c 0,-0.391276 0.880372,-1.614014 1.39392,-2.10311 l 2.445478,-2.372114 c 1.393922,-1.345013 2.592206,-2.298748 2.592206,-4.157313 0,-2.641115 -2.543297,-3.839398 -5.453412,-3.839398 -1.760747,0 -3.937221,0.807006 -4.548591,1.345015 l -0.07336,0.0978 0.51355,1.931928 1.076011,0.02446 c 0.807006,-1.442831 1.638469,-2.078656 2.836752,-2.078656 z"
       style="font-weight:bold;font-size:15.6652px;font-family:'Libertinus Sans';-inkscape-font-specification:'Libertinus Sans Bold';fill:#eeeeee;stroke-width:0;stroke-linecap:square;stroke-miterlimit:3;stroke-opacity:0.864469"
       id="path9851" />
  </g>
</svg>
