<?xml version="1.0" encoding="UTF-8" standalone="no"?>
<!-- Created with Inkscape (http://www.inkscape.org/) -->

<svg
   width="32"
   height="32"
   viewBox="0 0 32 32"
   version="1.1"
   id="svg5"
   sodipodi:docname="plus.svg"
   inkscape:version="1.2.1 (9c6d41e4, 2022-07-14)"
   xmlns:inkscape="http://www.inkscape.org/namespaces/inkscape"
   xmlns:sodipodi="http://sodipodi.sourceforge.net/DTD/sodipodi-0.dtd"
   xmlns="http://www.w3.org/2000/svg"
   xmlns:svg="http://www.w3.org/2000/svg">
  <sodipodi:namedview
     id="namedview7"
     pagecolor="#ffffff"
     bordercolor="#666666"
     borderopacity="1.0"
     inkscape:showpageshadow="2"
     inkscape:pageopacity="0.0"
     inkscape:pagecheckerboard="0"
     inkscape:deskcolor="#d1d1d1"
     inkscape:document-units="px"
     showgrid="false"
     inkscape:zoom="7.5900549"
     inkscape:cx="16.798297"
     inkscape:cy="13.768016"
     inkscape:window-width="1072"
     inkscape:window-height="583"
     inkscape:window-x="0"
     inkscape:window-y="25"
     inkscape:window-maximized="0"
     inkscape:current-layer="layer1" />
  <defs
     id="defs2" />
  <g
     inkscape:label="Layer 1"
     inkscape:groupmode="layer"
     id="layer1">
    <path
       id="path1514"
       style="fill:#000000;stroke:none;stroke-width:0;stroke-linecap:square;stroke-miterlimit:3;stroke-dasharray:none;stroke-opacity:0.864469"
       d="m 16.000001,3 c -1.656854,10e-8 -3,1.3431458 -3,3 v 7.000001 H 6 c -1.6568542,0 -2.9999999,1.343146 -3,3 10e-8,1.656854 1.3431458,3 3,3 h 7.000001 L 13,26 c 0,1.656854 1.343146,3 3,3 1.656854,0 3,-1.343146 3,-3 l 1e-6,-6.999999 H 26 c 1.656854,0 3,-1.343146 3,-3 0,-1.656854 -1.343146,-3 -3,-3 H 19.000001 V 6 c 0,-1.6568542 -1.343146,-2.9999999 -3,-3 z"
       sodipodi:nodetypes="sscssscssscssscss" />
  </g>
</svg>
