<svg id="favicon" xmlns="http://www.w3.org/2000/svg" viewBox="0 0 64 64" fill="#eee">
  <path d="M44.8 22.4a22.4 22.4 0 0 1-44.8 0V0h22.4a22.4 22.4 0 0 1 22.4 22.4Z" fill="#1d2443" />
  <path d="M64 41.6a22.4 22.4 0 1 1-22.4-22.4H64v22.4z" fill="#4f3362" />
  <path
    d="M16.11 13.42c0-.92.58-1.4 2.88-1.4 2.2 0 4.55.6 4.55 4.41 0 3.68-1.8 4.87-4.9 4.87-.8 0-2.11-.1-2.53-.32zm-2.75 3.84v7.84c0 2.4-.06 4.68-.32 6.4l.06.1a13.96 13.96 0 0 1 3.27 0l.06-.1c-.25-1.82-.32-4-.32-6.4v-2.75c.7.23 1.57.32 2.69.32 5.82 0 7.84-3.68 7.84-6.4 0-2.37-1.5-5.63-7.42-5.63-.84 0-3.52.22-4.48.22-.39 0-1.25-.03-1.64-.1l-.06.1c.26 1.83.32 4 .32 6.4z" aria-label="P" />
  <path
    d="M29.6 26.5c.89 0 1.87.98 1.87 2.5 0 1.56-.08 2.83-1.52 4.3l-1.81 1.78c-2.4 2.45-3.13 3.57-3.13 5.02l.02.1c2.38-.03 4.24-.1 6.1-.1 1.83 0 2.42.02 4.25.1a6.16 6.16 0 0 1 0-2.77c-1.42.1-2.1.22-4.55.22h-2c0-.4.88-1.61 1.39-2.1l2.44-2.37c1.4-1.35 2.6-2.3 2.6-4.16 0-2.64-2.55-3.84-5.46-3.84-1.76 0-3.93.8-4.55 1.34l-.07.1.52 1.93 1.07.03c.8-1.45 1.64-2.08 2.84-2.08z" aria-label="2" />
  <path
    d="M42.35 35.83c0-.93.57-1.4 2.88-1.4 2.2 0 4.54.6 4.54 4.4 0 3.69-1.8 4.87-4.9 4.87-.8 0-2.1-.1-2.52-.32zm-2.75 3.84v7.84c0 2.4-.07 4.67-.32 6.4l.06.1a13.96 13.96 0 0 1 3.26 0l.07-.1c-.26-1.82-.32-4-.32-6.4v-2.75c.7.22 1.57.32 2.69.32 5.82 0 7.84-3.68 7.84-6.4 0-2.37-1.5-5.63-7.43-5.63-.83 0-3.52.22-4.48.22-.38 0-1.25-.03-1.63-.1l-.06.1c.25 1.82.32 4 .32 6.4z" aria-label="P" />
</svg>